<svg xmlns="http://www.w3.org/2000/svg" viewBox="0 0 191.94 191.93"><defs><style>.cls-1{fill:#1d1d1b;stroke:#1d1d1b;stroke-miterlimit:10;}.cls-2{fill:#fff;}</style></defs><title>Chronos</title><g id="Layer_2" data-name="Layer 2"><g id="Layer_1-2" data-name="Layer 1"><path class="cls-1" d="M191.44,96A95.48,95.48,0,1,1,51.14,11.66q4-2.13,8.2-3.88A95.23,95.23,0,0,1,93.51.53Q94.74.5,96,.5A95.38,95.38,0,0,1,191.44,96Z"/><path class="cls-2" d="M100.67,136.73a48.5,48.5,0,0,1-17.19-3,40,40,0,0,1-13.66-8.45,39.35,39.35,0,0,1-9-12.94A40.59,40.59,0,0,1,57.56,96a40.58,40.58,0,0,1,3.25-16.41,39.38,39.38,0,0,1,9-12.94,40,40,0,0,1,13.66-8.46,48.53,48.53,0,0,1,17.19-3A47.38,47.38,0,0,1,120.11,59a37.38,37.38,0,0,1,14.28,11L120.27,82.75a27.84,27.84,0,0,0-8.34-6.83,21.69,21.69,0,0,0-10.14-2.35,24.24,24.24,0,0,0-8.85,1.57,19,19,0,0,0-6.89,4.54,21.36,21.36,0,0,0-4.48,7.11,26.78,26.78,0,0,0,0,18.37,21.33,21.33,0,0,0,4.48,7.11,18.92,18.92,0,0,0,6.89,4.54,24.18,24.18,0,0,0,8.85,1.57A21.69,21.69,0,0,0,111.93,116a27.84,27.84,0,0,0,8.34-6.83l14.11,12.77a38.34,38.34,0,0,1-14.28,10.92A46.78,46.78,0,0,1,100.67,136.73Z"/></g></g></svg>