<svg xmlns="http://www.w3.org/2000/svg" viewBox="0 0 72.41 87.05"><defs><style>.cls-1{fill:none;stroke:#d1d1d1;stroke-miterlimit:10;stroke-width:1.27px;}</style></defs><title>preset-img</title><g id="Layer_2" data-name="Layer 2"><g id="Layer_1-2" data-name="Layer 1"><rect class="cls-1" x="0.64" y="0.64" width="71.13" height="85.78"/><path class="cls-1" d="M48.3,53.11a12.39,12.39,0,0,1-.45,3.32A12.5,12.5,0,0,1,23.3,53.11a12.26,12.26,0,0,1,1-5,12.51,12.51,0,0,1,10.82-7.5h.64a12.44,12.44,0,0,1,11.46,7.52A12.26,12.26,0,0,1,48.3,53.11Z"/><path class="cls-1" d="M55.14,36.44v20H47.85a12.39,12.39,0,0,0,.45-3.32,12.26,12.26,0,0,0-1-5A12.44,12.44,0,0,0,35.8,40.62h-.64v-4.2Z"/><path class="cls-1" d="M41.82,20.86V36.44H35.16v4.2a12.51,12.51,0,0,0-10.82,7.5h-10Z"/></g></g></svg>