<svg xmlns="http://www.w3.org/2000/svg" viewBox="0 0 87.05 72.4"><defs><style>.cls-1{fill:none;stroke:#d1d1d1;stroke-miterlimit:10;stroke-width:1.27px;}</style></defs><title>preset-landscape-img</title><g id="Layer_2" data-name="Layer 2"><g id="Layer_1-2" data-name="Layer 1"><rect class="cls-1" x="0.63" y="0.63" width="85.78" height="71.13"/><path class="cls-1" d="M57.54,46.52a12.5,12.5,0,0,1-25,0,12.26,12.26,0,0,1,1-5A12.51,12.51,0,0,1,44.36,34H45a12.44,12.44,0,0,1,11.46,7.52A12.26,12.26,0,0,1,57.54,46.52Z"/><path class="cls-1" d="M64.38,29.85v20H57.09a12.39,12.39,0,0,0,.45-3.32,12.26,12.26,0,0,0-1-5A12.44,12.44,0,0,0,45,34H44.4v-4.2Z"/><path class="cls-1" d="M51.06,14.27V29.85H44.4v4.2a12.51,12.51,0,0,0-10.82,7.5h-10Z"/></g></g></svg>